<svg
  xmlns="http://www.w3.org/2000/svg"
  viewBox="0 0 24 24"
  fill="currentColor"
>
  <title>GitHub</title>
  <path d="M12 .5C5.65.5.5 5.65.5 12c0 5.09 3.29 9.41 7.86 10.94.58.11.79-.25.79-.56 0-.28-.01-1.2-.02-2.17-3.2.7-3.88-1.36-3.88-1.36-.52-1.33-1.28-1.68-1.28-1.68-1.04-.71.08-.7.08-.7 1.15.08 1.75 1.18 1.75 1.18 1.02 1.75 2.67 1.25 3.32.95.1-.74.4-1.25.72-1.54-2.55-.29-5.24-1.28-5.24-5.7 0-1.26.45-2.29 1.18-3.1-.12-.29-.51-1.46.11-3.04 0 0 .97-.31 3.18 1.18a10.97 10.97 0 0 1 5.8 0c2.2-1.49 3.17-1.18 3.17-1.18.63 1.58.24 2.75.12 3.04.73.81 1.18 1.84 1.18 3.1 0 4.43-2.69 5.4-5.25 5.69.41.35.77 1.03.77 2.08 0 1.5-.01 2.71-.01 3.08 0 .31.21.68.8.56A11.51 11.51 0 0 0 23.5 12C23.5 5.65 18.35.5 12 .5Z" />
</svg>