<svg xmlns="http://www.w3.org/2000/svg" viewBox="0 0 533.5 544.3">
  <title>Google</title>
  <path fill="#4285F4" d="M533.5 278.4c0-18.5-1.5-37-4.7-55H272v104.2h147.1c-6.3 33.7-25.2 62.3-53.8 81.4v67h86.9c50.9-46.9 81.3-116.1 81.3-197.6z"/>
  <path fill="#34A853" d="M272 544.3c73.6 0 135.5-24.4 180.7-66.3l-86.9-67c-24.2 16.2-55.1 25.7-93.8 25.7-72 0-133-48.6-154.8-113.9H27.5v71.6C73.3 485.1 166.3 544.3 272 544.3z"/>
  <path fill="#FBBC04" d="M117.2 322.8c-10.9-32.4-10.9-67.4 0-99.8V151.4H27.5c-38.2 76.1-38.2 165.4 0 241.5l89.7-70.1z"/>
  <path fill="#EA4335" d="M272 107.7c40 0 75.9 13.8 104.2 40.8l78.1-78.1C407.4 24.5 345.6 0 272 0 166.3 0 73.3 59.2 27.5 151.4l89.7 71.6C139 156.3 200 107.7 272 107.7z"/>
</svg>